<svg xmlns="http://www.w3.org/2000/svg" viewBox="0 0 629.01 663.5"><defs><style>.cls-1{fill:#2d2d2d;}</style></defs><g id="Слой_2" data-name="Слой 2"><g id="Слой_1-2" data-name="Слой 1"><path class="cls-1" d="M515.8,404.75a44.41,44.41,0,0,1,9.9,10.1,17.32,17.32,0,0,0,7.53,0,17.54,17.54,0,0,0,7.54-3.76,43.08,43.08,0,0,0,15.07-22.61,17.88,17.88,0,0,0,11.3-3.77,30.56,30.56,0,0,0,.86-7.21,30.19,30.19,0,0,0-.86-7.17h8.54V349.41l2.76-2.37h18.84A4.74,4.74,0,0,0,600,345.5a4.54,4.54,0,0,0,1-2.23L586,286.76a7.73,7.73,0,0,1-1-4.26,7.62,7.62,0,0,1,1-3.27,71.61,71.61,0,0,0,20-15.73c.91-1,1.77-2.07,2.58-3.11A178.09,178.09,0,0,0,610,225.5c-.29-5.05-.79-9.85-1.42-14.36A97.36,97.36,0,0,0,619,200.5a98.62,98.62,0,0,0,8.42-11.69,20.69,20.69,0,0,0,0-15.91,187.26,187.26,0,0,0-101.72-67,108.64,108.64,0,0,0-79.64,0A120.07,120.07,0,0,0,363.7,185a41.07,41.07,0,0,0,0,34.51c.72,9.38,1.92,19.58,3.8,30.45a326.45,326.45,0,0,0,7.5,33,57.91,57.91,0,0,1,0,33.9,54.92,54.92,0,0,1-56.51,33.91,191.38,191.38,0,0,0,18.84-7.54c10.85-5,13.87-7.67,15.07-11.3a13,13,0,0,0,0-7.53A157.61,157.61,0,0,0,295.89,283a155.28,155.28,0,0,0-41.44-11.31H220.54a159.6,159.6,0,0,0-64,33.91,86.41,86.41,0,0,1,52.74-41.44,108.42,108.42,0,0,0-79.12-37.67c29.29-18.06,44.37-37.82,52.75-52.75,13.55-24.13,12.83-41.4,30.14-64,13.46-17.63,29.78-27.95,41.44-33.91a42.48,42.48,0,0,1,16.31,0,51.4,51.4,0,0,0,28.9,22.6A63.51,63.51,0,0,0,312.5,99c2.13-.11,4.13-.33,6-.61a24.49,24.49,0,0,0,11.3-18.83,132.53,132.53,0,0,0,15.07-3.77,133.13,133.13,0,0,0,18.84-7.53,14.19,14.19,0,0,0,3.77-3.77c5.15-7.66.51-17.77,0-18.84L337.33,4.21A36.21,36.21,0,0,0,314.72.44,236.32,236.32,0,0,1,284.59,8a237.42,237.42,0,0,1-45.21,3.77c-26.82,17.53-49.72,32.9-67.82,45.2-39,26.52-46.8,32.72-52.74,37.68-22.58,18.83-29.73,29.18-56.51,56.51-13.38,13.65-33.55,33.48-59.92,56.51A14,14,0,0,0,2,222.72,48.19,48.19,0,0,1,9.57,234a48.73,48.73,0,0,1,3.77,11.3,126.77,126.77,0,0,0,3.76,41.44c-.3,9.21.54,23.21,7.54,37.68,4.78,9.88,9.92,14.8,22.6,30.14,6.35,7.68,15.59,19.18,26.37,33.9a19.79,19.79,0,0,1,3.77-11.3,18.83,18.83,0,0,1,3.77-3.77,60.88,60.88,0,0,0,18.83,49,43.45,43.45,0,0,1,15.07-30.14A191.47,191.47,0,0,0,126.36,509a65.14,65.14,0,0,1,33.9-30.14c-9.17,8.7-20.42,22.33-26.37,41.44-4.6,14.78-4.22,27-3.77,41.44a206.33,206.33,0,0,0,7.54,49L243.14,663.5A270.27,270.27,0,0,1,350,486.5c22-17.08,48.14-36.7,78-58,0,0,52.73-37.61,75.34-30.12A50.21,50.21,0,0,1,515.8,404.75Z"/></g></g></svg>