<svg width="218" height="103" viewBox="0 0 218 103" fill="none" xmlns="http://www.w3.org/2000/svg">
<path d="M133 57.2999H117.9V0.799927H146.3C160.3 0.799927 165.6 5.99993 165.6 20.7999C165.6 36.6999 162.1 41.6999 146.3 41.6999H133V57.2999ZM133 29.2999H143.3C149 29.2999 150.1 28.1999 150.1 20.8999C150.1 15.0999 149.2 13.0999 143.3 13.0999H133V29.2999Z" fill="white"/>
<path d="M24 68.6V75.8H9.3V82.3H22.8V89.5H9.3V101.7H0.5V68.6H24Z" fill="white"/>
<path d="M75.9998 101.7H67.1998V76.3H58.2998V68.6H84.9998V76.3H75.9998V101.7Z" fill="white"/>
<path d="M103.5 68.6L113.3 94.1L112.8 68.7H121.6V101.8H106.5L96.8 76.3V76.4L97.3 101.8H88.5V68.6H103.5Z" fill="white"/>
<path d="M136.1 81.9H150.2V88H136.1V94.5H151.5V101.7H127.3V68.6H151.2V75.8H136.1V81.9Z" fill="white"/>
<path d="M175.4 79C175.4 75.6 173.9 75.6 170.5 75.6C165.7 75.6 165.3 76.6 165.3 78.5C165.3 80.8 166.3 81.1 170.1 81.8L178.6 83.5C183 84.3 184.9 86.8 184.9 91.2C184.9 100.4 183 102.2 170.5 102.2C161.2 102.2 156.5 101.1 156.5 91.2H165C165 94.6 166.2 95 170.6 95C174.8 95 176.1 94.6 176.1 91.8C176.1 90.4 175.8 89.1 172.1 88.6L163.7 87.4C160.1 86.9 156.6 85 156.6 78.6C156.6 69.5 162 68.5 170.6 68.5C179.3 68.5 184 69.8 184 77.8V79H175.4Z" fill="white"/>
<path d="M207.8 79C207.8 75.6 206.3 75.6 202.9 75.6C198.1 75.6 197.7 76.6 197.7 78.5C197.7 80.8 198.7 81.1 202.5 81.8L211 83.5C215.4 84.3 217.3 86.8 217.3 91.2C217.3 100.4 215.4 102.2 202.9 102.2C193.6 102.2 188.9 101.1 188.9 91.2H197.4C197.4 94.6 198.6 95 203 95C207.1 95 208.5 94.6 208.5 91.8C208.5 90.4 208.1 89.1 204.5 88.6L196.1 87.4C192.5 86.9 189 85 189 78.6C189 69.5 194.4 68.5 203 68.5C211.7 68.5 216.4 69.8 216.4 77.8V79H207.8Z" fill="white"/>
<path d="M189 23.4999H213.1V33.9999H189V44.9999H215.2V57.3999H174V0.799927H214.8V13.1999H189V23.4999Z" fill="white"/>
<path d="M53 101.7H31.3V42.1999H21.6V64.9999H0V0.799927H21.7V22.5999H31.4V0.799927H53V101.7ZM37.5 95.4999H46.8V6.99993H37.5V28.7999H15.5V6.99993H6.2V58.8999H15.5V36.0999H37.5V95.4999Z" fill="#F5DE1E"/>
<path d="M85.4001 0.899976C85.0001 0.899976 84.6001 0.899976 84.3001 0.999976C83.8001 0.499976 83.3001 0.0999756 82.6001 0.0999756C82.3001 0.0999756 82.1001 0.199976 81.8001 0.299976C80.5001 0.899976 78.5001 1.29998 76.9001 1.29998C74.9001 1.39998 74.0001 1.99998 72.2001 3.29998C71.8001 3.59998 71.2001 3.99998 70.5001 4.49998C68.3001 5.99998 65.0001 8.29998 62.7001 10.8C62.2001 11.3 61.8001 11.8 61.4001 12.2C59.2001 14.6 57.8001 16 56.7001 16.8C56.0001 17.3 55.6001 17.8 55.6001 18.5C55.6001 19 55.8001 19.5 56.1001 20C56.2001 20.3 56.4001 20.5 56.5001 20.8C56.6001 21.1 56.6001 21.7 56.7001 22.4C56.8001 23.7 56.9001 25.4 57.5001 27C57.4001 27.7 57.4001 28.4 57.4001 29.2C57.4001 37.5 61.0001 44.9 66.7001 50.1V50.2C66.7001 50.3 66.8001 50.3 66.8001 50.4L67.6001 50.9C67.5001 50.6 67.4001 50.2 67.3001 49.9C67.2001 49.5 66.8001 48.2 66.7001 46.7C66.6001 45.3 66.8001 44.1 66.9001 43.5C67.3001 42.1 68.0001 40.7 69.4001 39.8C69.4001 39.8 67.8001 40.4 66.6001 42.4C66.3001 41.9 66.1001 41.5 66.0001 41C65.9001 40.7 65.7001 40.2 65.6001 39.7C65.2001 38.3 65.1001 37.1 65.0001 36.6C64.9001 35.3 65.1001 33.9 65.8001 32.9C65.8001 32.9 64.8001 33.6 64.3001 35.6C64.1001 35.3 63.9001 35.1 63.8001 34.8C63.5001 34.3 62.6001 32.7 62.6001 31.6C62.6001 31.6 62.4001 32 62.4001 32.6C61.5001 31.7 59.9001 29.9 58.6001 28C56.8001 25.2 57.4001 21.8 57.0001 20.5C56.6001 19.2 55.5001 18.4 56.9001 17.4C58.3001 16.5 60.0001 14.6 63.1001 11.3C66.2001 7.99998 70.9001 5.19998 72.6001 3.79998C74.2001 2.59998 75.0001 1.99998 76.7001 1.99998C78.4001 1.99998 80.6001 1.49998 81.9001 0.899976C82.1001 0.799976 82.2001 0.799976 82.4001 0.799976C83.5001 0.799976 84.1001 2.49998 85.0001 3.69998C86.0001 5.09998 86.2001 6.39998 85.4001 6.79998C84.6001 7.09998 82.7001 7.59998 82.7001 7.59998C82.7001 7.59998 82.7001 8.89998 81.4001 9.09998C81.3001 9.09998 81.2001 9.09998 81.1001 9.09998C79.8001 9.09998 78.6001 7.59998 77.7001 7.29998C77.6001 7.29998 77.6001 7.29998 77.5001 7.29998C76.3001 7.29998 72.7001 9.29997 71.7001 13.2C70.6001 17.4 66.6001 19.3 66.6001 19.3C66.7001 19.3 66.7001 19.3 66.8001 19.3C69.4001 19.3 72.1001 21.5 73.3001 22.6C69.8001 23.5 68.7001 26.1 68.7001 26.1C70.3001 24.3 72.2001 23.5 73.9001 23.2C74.4001 23.1 74.9001 23.1 75.4001 23.1C76.2001 23.1 77.0001 23.2 77.8001 23.3C77.9001 23.3 78.1001 23.4 78.2001 23.4C78.3001 23.4 78.5001 23.5 78.6001 23.5C78.8001 23.5 78.9001 23.6 79.1001 23.6C79.3001 23.7 79.5001 23.7 79.6001 23.8H79.7001C82.3001 24.9 84.0001 26.7 84.7001 27.7C83.7001 29.2 81.3001 29.6 81.3001 29.6C83.7001 29.6 85.0001 28.7 85.6001 27.8C85.7001 27.7 85.7001 27.6 85.8001 27.6C85.8001 27.5 85.9001 27.5 85.9001 27.4C85.9001 27.4 85.9001 27.3 86.0001 27.3C86.0001 27.3 86.0001 27.2 86.1001 27.2C86.3001 26.7 86.4001 26.3 86.4001 26.3C87.0001 23.5 85.1001 19.3 85.4001 16.8C85.8001 13.7 89.6001 9.19998 95.2001 9.19998C95.4001 9.19998 95.7001 9.19998 95.9001 9.19998C103.4 9.69998 106.7 14.8 106.9 15.5C107.1 16.2 105.5 18.2 105.5 18.2L105.3 21.8C105.3 22 105.2 22.2 105.1 22.4L104 23.6C103.7 23.9 103.6 24.3 103.7 24.7C104 25.9 104.6 28.3 104.5 28.7C104.4 29.1 103.8 29.2 103.1 29.2C102.5 29.2 102.6 30.5 102.6 30.8C102.7 31.3 102 31.3 102 31.3C102 31.3 102.3 32.1 101.9 32.2C100.7 32.5 101.3 33.3 100.1 34.3C99.8001 34.6 99.5001 34.7 99.2001 34.7C98.0001 34.7 96.8001 33.3 96.8001 33.3C82.0001 38.9 76.9001 47.6 75.5001 55.1C75.6001 55.1 75.6001 55.1 75.7001 55.2C76.0001 55.3 76.2001 55.4 76.5001 55.5C79.3001 56.5 82.3001 57 85.5001 57C101.1 57 113.7 44.4 113.7 28.8C113.6 13.5 101 0.899976 85.4001 0.899976Z" fill="white"/>
</svg>
