<svg xmlns="http://www.w3.org/2000/svg" viewBox="0 0 254.96 793.88"><defs><style>.cls-1{fill:#1a1a1a;}</style></defs><g id="Слой_2" data-name="Слой 2"><g id="Слой_1-2" data-name="Слой 1"><rect class="cls-1" x="100.76" y="514.5" width="53.43" height="254.96" transform="translate(769.46 514.5) rotate(90)"/><rect class="cls-1" x="100.76" y="22.9" width="53.43" height="254.96" transform="translate(277.86 22.9) rotate(90)"/><rect class="cls-1" x="104.58" y="-9.92" width="45.8" height="206.1" transform="translate(220.61 -34.35) rotate(90)"/><rect class="cls-1" x="104.58" y="597.7" width="45.8" height="206.1" transform="translate(828.24 573.28) rotate(90)"/><rect class="cls-1" x="106.11" y="684.73" width="42.75" height="135.88" transform="translate(880.14 625.18) rotate(90)"/><rect class="cls-1" x="106.11" y="-26.72" width="42.75" height="135.88" transform="translate(168.7 -86.26) rotate(90)"/><rect class="cls-1" x="106.11" y="31.3" width="42.75" height="80.92" transform="translate(199.23 -55.72) rotate(90)"/><rect class="cls-1" x="104.58" y="754.19" width="45.8" height="33.59" rx="11" transform="translate(898.46 643.5) rotate(90)"/><rect class="cls-1" x="104.58" y="6.11" width="45.8" height="33.59" rx="11" transform="translate(150.38 -104.58) rotate(90)"/><rect class="cls-1" x="106.11" y="68.7" width="42.75" height="109.92" transform="translate(251.14 -3.82) rotate(90)"/><rect class="cls-1" x="106.11" y="691.6" width="42.75" height="79.39" transform="translate(858.77 603.81) rotate(90)"/><rect class="cls-1" x="106.11" y="145.04" width="42.75" height="33.59" transform="translate(289.31 34.35) rotate(90)"/><rect class="cls-1" x="106.11" y="613.73" width="42.75" height="33.59" transform="translate(758.01 503.05) rotate(90)"/><rect class="cls-1" x="-111.45" y="390.07" width="462.59" height="18.32" transform="translate(519.08 279.39) rotate(90)"/><rect class="cls-1" x="-89.31" y="393.89" width="462.59" height="4.58" transform="translate(538.16 254.2) rotate(90)"/><rect class="cls-1" x="106.11" y="622.89" width="42.75" height="109.92" transform="translate(805.33 550.38) rotate(90)"/></g></g></svg>